<?xml version="1.0" encoding="UTF-8"?>
<svg version="1.1" xmlns="http://www.w3.org/2000/svg" width="64" height="64">
<path d="M0 0 C4.62 0 9.24 0 14 0 C16.64 7.26 19.28 14.52 22 22 C22.33 14.74 22.66 7.48 23 0 C27.29 0 31.58 0 36 0 C36 21.12 36 42.24 36 64 C32.04 64 28.08 64 24 64 C21.18986362 61.18986362 20.43723126 60.09712185 19.17578125 56.55078125 C18.71655273 55.27944336 18.71655273 55.27944336 18.24804688 53.98242188 C17.78495117 52.66081055 17.78495117 52.66081055 17.3125 51.3125 C16.99216797 50.41982422 16.67183594 49.52714844 16.34179688 48.60742188 C15.55360039 46.40753019 14.77334105 44.20514854 14 42 C13.97494385 42.63091553 13.9498877 43.26183105 13.92407227 43.91186523 C13.80845863 46.75396825 13.68557684 49.59571083 13.5625 52.4375 C13.52318359 53.43072266 13.48386719 54.42394531 13.44335938 55.44726562 C13.40146484 56.39150391 13.35957031 57.33574219 13.31640625 58.30859375 C13.26141968 59.62041626 13.26141968 59.62041626 13.20532227 60.95874023 C13 63 13 63 12 64 C8.04 64 4.08 64 0 64 C0 42.88 0 21.76 0 0 Z " fill="#E20712" transform="translate(14,0)"/>
<path d="M0 0 C12.03993228 18.05989842 15.6533777 40.82019951 13 62 C12.505 62.495 12.505 62.495 12 63 C8.04 63 4.08 63 0 63 C0 42.21 0 21.42 0 0 Z " fill="#B0050E" transform="translate(14,1)"/>
<path d="M0 0 C4.29 0 8.58 0 13 0 C13 20.46 13 40.92 13 62 C8.92202205 57.92202205 7.37590191 51.54442665 5.375 46.1875 C5.11955414 45.5052536 4.86410828 44.8230072 4.60092163 44.12008667 C-0.85849156 29.18283744 -1.16488071 15.8259046 0 0 Z " fill="#B0050E" transform="translate(37,0)"/>
<path d="M0 0 C3.88467104 1.94233552 4.69133368 7.47927773 6.125 11.375 C6.49753906 12.32761719 6.87007812 13.28023437 7.25390625 14.26171875 C9.75008429 21.01877214 10.48984332 26.81738697 10 34 C8 31 8 31 8 27 C7.34 27 6.68 27 6 27 C4.99425299 23.0639449 3.99638995 19.12593326 3 15.1875 C2.71382812 14.06794922 2.42765625 12.94839844 2.1328125 11.79492188 C1.86210937 10.72177734 1.59140625 9.64863281 1.3125 8.54296875 C1.06113281 7.55321045 0.80976563 6.56345215 0.55078125 5.54370117 C0 3 0 3 0 0 Z " fill="#9E040E" transform="translate(17,11)"/>
<path d="M0 0 C3.03179462 4.54769193 4.04400711 9.04357962 4.9375 14.375 C5.52333712 17.81563069 6.23334837 20.89890381 7.5625 24.125 C9.28936854 28.3287911 9.69744492 32.49297254 10 37 C6.53313073 33.53313073 5.49502497 28.68167801 3.875 24.125 C3.50246094 23.13757813 3.12992188 22.15015625 2.74609375 21.1328125 C0.18157371 13.91833855 -0.47286539 7.63194572 0 0 Z " fill="#85010C" transform="translate(37,17)"/>
<path d="M0 0 C2.53633364 3.01944481 3.69040767 5.63377743 4.6875 9.4375 C4.93886719 10.36433594 5.19023438 11.29117188 5.44921875 12.24609375 C5.9828988 14.91449402 6.10336553 17.28788525 6 20 C3.28256973 17.28256973 2.49067114 14.13057954 1.3125 10.5625 C0.95575195 9.5405957 0.95575195 9.5405957 0.59179688 8.49804688 C-1.12211809 3.36635427 -1.12211809 3.36635427 0 0 Z " fill="#9B030D" transform="translate(41,34)"/>
<path d="M0 0 C2.96311369 2.96311369 3.91404329 5.72612156 4.1953125 9.89453125 C4.16050781 11.33892578 4.16050781 11.33892578 4.125 12.8125 C4.10695313 13.78832031 4.08890625 14.76414062 4.0703125 15.76953125 C4.03550781 16.87361328 4.03550781 16.87361328 4 18 C2.05116862 15.07675293 1.51920273 13.48916982 0.875 10.125 C0.70742188 9.28195313 0.53984375 8.43890625 0.3671875 7.5703125 C0.00121155 5.00848085 -0.06482904 2.58390011 0 0 Z " fill="#8B020C" transform="translate(23,27)"/>
<path d="M0 0 C2.40034102 3.60051153 4.32187705 6.96144535 3.625 11.375 C3.41875 11.91125 3.2125 12.4475 3 13 C0.89172945 9.83759418 0.66182535 8.49342531 0.375 4.8125 C0.30023438 3.91144531 0.22546875 3.01039062 0.1484375 2.08203125 C0.09945312 1.39496094 0.05046875 0.70789063 0 0 Z " fill="#97030D" transform="translate(37,17)"/>
</svg>
